<svg width="696" height="562" viewBox="0 0 696 562" fill="none" xmlns="http://www.w3.org/2000/svg">
<style>
	@import url(../css/style.css);
  </style>
<g id="animation_vector 1" clip-path="url(#clip0_2_2)">
<g id="OBJECTS">
<path id="Vector" d="M625.141 562H14.3296C10.5292 562 6.88438 560.689 4.19705 558.355C1.50973 556.022 9.06648e-06 552.857 9.06648e-06 549.556C-0.00210955 547.922 0.367092 546.303 1.08647 544.792C1.80585 543.281 2.86128 541.909 4.19233 540.753C5.52338 539.597 7.1039 538.681 8.8434 538.056C10.5829 537.431 12.4472 537.111 14.3296 537.112H625.141C628.941 537.112 632.586 538.423 635.274 540.757C637.961 543.091 639.471 546.256 639.471 549.556V549.556C639.466 552.855 637.955 556.018 635.269 558.351C632.582 560.684 628.94 561.996 625.141 562V562Z" fill="#E6EDFF"/>
<path id="Vector_2" d="M630.438 317.975L629.665 317.569C611.133 308.202 589.285 304.594 568.225 300.078C548.663 295.884 526.701 290.291 511.679 277.875C493.421 262.831 495.965 242.11 502.985 223.262C510.359 203.478 517.315 183.568 514.062 162.567C510.252 138.187 497.714 115.463 478.222 97.6072C447.631 69.7554 400.263 54.9906 354.875 59.1711C293.966 64.7639 243.941 101.242 205.96 140.741C181.036 166.664 166.336 196.095 137.902 220.717C109.807 245.046 78.2493 266.969 54.5974 294.541C23.1528 331.23 7.79275 378.041 18.0006 422.126C28.2084 466.21 65.5459 506.478 116.666 522.389C149.221 532.526 184.932 532.736 219.71 532.82C292.034 532.974 364.455 533.141 436.538 528.374C483.97 525.242 532.047 519.789 575.261 503.416C618.475 487.043 656.747 458.339 670.915 421.035C685.019 383.969 670.4 338.654 630.438 317.975Z" fill="#BFD2FF"/>
<g id="circle-left">
<path id="Vector_3" d="M49.9209 233.518C48.794 229.34 46.6272 225.533 43.6329 222.47L38.7458 218.549C34.9961 216.338 30.7405 215.186 26.414 215.211H25.2085C21.9378 215.068 18.6885 215.816 15.7927 217.381C12.7739 218.371 10.0612 220.155 7.92452 222.554C5.59217 224.744 3.85249 227.515 2.87452 230.597C1.34867 233.564 0.623228 236.893 0.77307 240.243C1.05001 242.462 1.34323 244.682 1.63646 246.918C2.75715 251.073 4.90626 254.861 7.87564 257.915L12.7627 261.837C16.5085 264.058 20.7667 265.21 25.0945 265.174H26.3C29.5696 265.328 32.8201 264.584 35.7158 263.021C38.7287 262.028 41.4356 260.245 43.5677 257.848C45.9083 255.655 47.6539 252.878 48.634 249.788C50.1561 246.82 50.8813 243.492 50.7354 240.143L49.9209 233.518Z" fill="#E6EDFF"/>
</g>
<g id="circle-right">
<path id="Vector_4" d="M641.635 264.021C669.25 264.021 691.635 241.635 691.635 214.021C691.635 186.407 669.25 164.021 641.635 164.021C614.021 164.021 591.635 186.407 591.635 214.021C591.635 241.635 614.021 264.021 641.635 264.021Z" fill="#BFD2FF"/>
</g>
<g id="wheel-gear-small">
<path id="Vector_5" d="M429.863 7.32971C427.904 7.72972 425.986 8.31039 424.134 9.06428C424.252 9.2014 424.362 9.34498 424.464 9.49433C424.819 10.0704 425.058 10.7109 425.166 11.3792C425.274 12.0476 425.25 12.7308 425.094 13.3897C424.938 14.0486 424.655 14.6704 424.259 15.2196C423.863 15.7687 423.363 16.2345 422.788 16.5903C422.212 16.9461 421.573 17.1849 420.905 17.2932C420.237 17.4015 419.555 17.377 418.896 17.2213C418.238 17.0656 417.617 16.7815 417.068 16.3855C416.519 15.9895 416.054 15.4891 415.699 14.9131C415.597 14.7423 415.506 14.5651 415.426 14.3827C413.905 15.7141 412.515 17.1877 411.273 18.7836C411.459 18.7836 411.645 18.9126 411.817 18.9986C412.445 19.2994 413.004 19.724 413.463 20.247C413.922 20.77 414.271 21.3806 414.488 22.0419C414.705 22.7033 414.786 23.4017 414.727 24.0953C414.667 24.7888 414.468 25.4632 414.141 26.0777C413.814 26.6922 413.367 27.2341 412.825 27.671C412.284 28.1078 411.659 28.4304 410.99 28.6195C410.321 28.8086 409.62 28.8602 408.93 28.7711C408.241 28.6821 407.576 28.4543 406.976 28.1015C406.789 27.9921 406.607 27.8725 406.432 27.7431C405.763 29.6701 405.284 31.6578 405 33.6779C405.213 33.6342 405.428 33.6055 405.645 33.5919C406.977 33.5984 408.254 34.1207 409.21 35.0493C410.166 35.9779 410.726 37.2407 410.772 38.5732C410.818 39.9057 410.348 41.2044 409.459 42.1972C408.569 43.19 407.331 43.7999 406.003 43.899C405.759 43.9132 405.515 43.9132 405.272 43.899C405.659 45.9205 406.244 47.8989 407.019 49.8051C407.203 49.6412 407.399 49.4926 407.607 49.3607C408.763 48.7113 410.124 48.5326 411.408 48.8615C412.692 49.1905 413.801 50.0019 414.503 51.1272C415.205 52.2526 415.447 53.6054 415.179 54.9048C414.911 56.2042 414.153 57.3503 413.063 58.1052C412.835 58.24 412.595 58.3551 412.347 58.4492C413.706 60.0277 415.217 61.4681 416.859 62.7498C416.938 62.5026 417.039 62.2628 417.159 62.0331C417.799 60.8259 418.892 59.9228 420.198 59.5222C421.503 59.1216 422.914 59.2565 424.12 59.8971C425.326 60.5377 426.228 61.6317 426.628 62.9382C427.029 64.2448 426.894 65.6569 426.254 66.8641C426.116 67.1111 425.958 67.3461 425.781 67.5665C427.747 68.2494 429.777 68.7297 431.839 69C431.784 68.7356 431.751 68.4671 431.739 68.1972C431.69 66.8323 432.184 65.5037 433.114 64.5036C434.043 63.5035 435.331 62.9139 436.695 62.8645C438.058 62.8151 439.386 63.3099 440.385 64.2401C441.384 65.1702 441.973 66.4596 442.022 67.8245C442.051 68.1105 442.051 68.3986 442.022 68.6846C444.069 68.2804 446.07 67.6705 447.995 66.8641C447.808 66.6703 447.64 66.4591 447.493 66.2333C447.134 65.6601 446.891 65.0216 446.779 64.3544C446.666 63.6872 446.686 63.0043 446.836 62.3448C446.987 61.6852 447.267 61.0618 447.658 60.5102C448.05 59.9587 448.546 59.4897 449.119 59.1302C449.692 58.7706 450.33 58.5275 450.996 58.4146C451.663 58.3018 452.345 58.3215 453.004 58.4726C453.663 58.6237 454.286 58.9032 454.837 59.2952C455.388 59.6872 455.856 60.184 456.216 60.7572C456.357 60.9919 456.481 61.2362 456.588 61.4883C458.141 60.1202 459.556 58.603 460.813 56.9584C460.568 56.8777 460.329 56.782 460.097 56.6717C458.889 56.0292 457.985 54.9327 457.585 53.6234C457.185 52.3142 457.321 50.8994 457.963 49.6904C458.605 48.4814 459.7 47.5771 461.008 47.1766C462.316 46.776 463.73 46.9119 464.938 47.5545C465.155 47.6861 465.366 47.8297 465.568 47.9845C466.239 46.0335 466.718 44.0219 467 41.978C466.768 42.0265 466.534 42.06 466.298 42.0784C465.579 42.129 464.857 42.0281 464.18 41.7822C463.502 41.5363 462.883 41.1509 462.364 40.6509C461.844 40.1508 461.435 39.5472 461.162 38.8791C460.89 38.211 460.761 37.4931 460.783 36.7719C460.805 36.0507 460.978 35.3421 461.291 34.692C461.604 34.0418 462.049 33.4645 462.598 32.9974C463.148 32.5302 463.789 32.1836 464.481 31.9798C465.172 31.776 465.899 31.7196 466.613 31.8143C466.215 29.8156 465.62 27.8613 464.837 25.9799C464.666 26.1089 464.522 26.2523 464.336 26.3669C463.18 27.0163 461.819 27.1951 460.534 26.8661C459.25 26.5372 458.142 25.7258 457.44 24.6004C456.737 23.4751 456.495 22.1222 456.763 20.8228C457.031 19.5234 457.789 18.3773 458.879 17.6224C459.053 17.5174 459.235 17.4263 459.424 17.3501C458.087 15.8325 456.604 14.4497 454.998 13.2215C454.939 13.3984 454.867 13.5709 454.783 13.7376C454.466 14.3353 454.035 14.8646 453.514 15.2955C452.992 15.7263 452.391 16.0501 451.745 16.2484C451.099 16.4468 450.42 16.5158 449.747 16.4514C449.074 16.3871 448.42 16.1907 447.823 15.8735C447.226 15.5563 446.697 15.1245 446.266 14.6027C445.836 14.0809 445.512 13.4794 445.314 12.8324C445.116 12.1855 445.047 11.5058 445.111 10.8322C445.176 10.1586 445.372 9.50429 445.689 8.90659C445.786 8.74349 445.891 8.58559 446.004 8.43353C444.101 7.75535 442.133 7.27497 440.132 7C440.171 7.1696 440.195 7.34228 440.204 7.51607C440.251 8.88097 439.755 10.2088 438.824 11.2076C437.894 12.2063 436.605 12.7941 435.241 12.8416C433.877 12.8891 432.551 12.3925 431.553 11.461C430.555 10.5295 429.968 9.23935 429.92 7.87445C429.888 7.69456 429.868 7.51247 429.863 7.32971ZM435.277 20.0594C438.821 19.9169 442.328 20.8307 445.354 22.6851C448.379 24.5395 450.786 27.2511 452.27 30.4761C453.754 33.7012 454.248 37.2946 453.69 40.8011C453.131 44.3075 451.546 47.5691 449.133 50.1726C446.721 52.7761 443.591 54.6043 440.14 55.4255C436.689 56.2468 433.072 56.0241 429.747 54.7856C426.422 53.5472 423.54 51.3489 421.465 48.4691C419.39 45.5893 418.215 42.1577 418.09 38.6093C417.924 33.8714 419.638 29.2603 422.859 25.7841C426.079 22.308 430.544 20.2498 435.277 20.0594V20.0594Z" fill="#E6EDFF"/>
</g>
<g id="pie-chart">
<path id="Vector_6" d="M71.512 196.509C104.649 196.509 131.512 169.646 131.512 136.509C131.512 103.372 104.649 76.5086 71.512 76.5086C38.3749 76.5086 11.512 103.372 11.512 136.509C11.512 169.646 38.3749 196.509 71.512 196.509Z" fill="#E6EDFF"/>
<path id="Vector_7" d="M70.0891 137.429L23.2956 121.117C21.4656 126.324 20.5262 131.853 20.5238 137.429C20.5238 164.627 42.9053 186.996 70.0891 186.996C79.0012 187.016 87.7743 184.589 95.5979 179.938L70.0891 137.429Z" fill="#628AEC"/>
<path id="Vector_8" d="M72.6236 136.509L98.4586 178.807C105.578 174.512 111.568 168.301 115.86 160.767C119.975 153.48 122.165 145.097 122.189 136.541L72.6236 136.509Z" fill="#BFD2FF"/>
<path id="Vector_9" d="M72.9349 134.118L122.5 133.44C122.403 126.654 120.93 119.975 118.187 113.881C115.363 107.637 111.375 102.104 106.477 97.6338L72.9349 134.118Z" fill="#FEFEFF"/>
</g>
<g id="bar-chart">
<path id="Vector_10" d="M232.784 77.6551H213.286V118.342H232.784V77.6551Z" fill="#628AEC"/>
<path id="Vector_11" d="M262.924 57.745H243.426V118.342H262.924V57.745Z" fill="#628AEC"/>
<path id="Vector_12" d="M293.048 30.2567H273.55V118.328H293.048V30.2567Z" fill="#628AEC"/>
<path id="Vector_13" d="M323.189 68.7906H303.691V118.342H323.189V68.7906Z" fill="#628AEC"/>
<path id="Vector_14" d="M202.852 31.1096V117.965H336.053" stroke="#628AEC" stroke-width="0.876261" stroke-miterlimit="10"/>
</g>
<g id="wheel-gear">
<path id="Vector_15" d="M499.582 50.6785C495.4 51.5007 491.308 52.73 487.366 54.3487C487.618 54.6357 487.85 54.9396 488.06 55.2585C489.594 57.7124 490.09 60.6751 489.439 63.4948C488.788 66.3144 487.044 68.7601 484.589 70.2938C482.135 71.8275 479.172 72.3236 476.351 71.6729C473.531 71.0222 471.085 69.278 469.551 66.8241C469.341 66.4615 469.155 66.0855 468.995 65.6984C465.777 68.4957 462.833 71.5939 460.203 74.9509C460.587 75.0852 460.962 75.2397 461.329 75.4135C462.597 76.0828 463.721 76.9953 464.636 78.0987C465.552 79.2022 466.241 80.4751 466.664 81.8448C467.087 83.2145 467.236 84.6541 467.103 86.0814C466.97 87.5087 466.557 88.8959 465.887 90.1636C465.218 91.4313 464.305 92.5547 463.201 93.4698C462.098 94.3849 460.824 95.0737 459.454 95.4968C458.084 95.92 456.645 96.0692 455.217 95.936C453.789 95.8028 452.402 95.3897 451.134 94.7204C450.734 94.485 450.348 94.2276 449.977 93.9494C448.573 98.0251 447.576 102.23 447 106.502C447.442 106.409 447.891 106.347 448.342 106.317C449.784 106.247 451.226 106.465 452.583 106.957C453.94 107.449 455.187 108.205 456.249 109.182C457.312 110.16 458.17 111.338 458.773 112.649C459.377 113.961 459.714 115.379 459.765 116.821C459.816 118.264 459.58 119.702 459.071 121.053C458.562 122.404 457.789 123.64 456.798 124.689C455.807 125.739 454.618 126.582 453.298 127.169C451.979 127.755 450.557 128.074 449.113 128.107C448.597 128.115 448.082 128.084 447.571 128.014C448.39 132.291 449.635 136.476 451.288 140.505C451.667 140.153 452.074 139.833 452.506 139.549C453.722 138.789 455.075 138.277 456.488 138.04C457.902 137.803 459.348 137.848 460.745 138.17C462.141 138.492 463.461 139.086 464.627 139.918C465.794 140.75 466.786 141.803 467.545 143.018C468.305 144.234 468.818 145.586 469.054 146.999C469.291 148.413 469.247 149.859 468.925 151.255C468.603 152.651 468.008 153.97 467.176 155.137C466.344 156.303 465.29 157.294 464.075 158.054C463.583 158.345 463.067 158.593 462.532 158.794C465.411 162.107 468.609 165.129 472.08 167.815C472.24 167.284 472.447 166.768 472.697 166.273C474.047 163.715 476.358 161.798 479.122 160.943C481.886 160.088 484.876 160.367 487.435 161.716C489.994 163.066 491.912 165.377 492.767 168.14C493.621 170.903 493.343 173.893 491.993 176.451C491.713 176.994 491.382 177.511 491.006 177.993C495.17 179.429 499.47 180.436 503.839 181C503.715 180.442 503.637 179.875 503.608 179.304C503.54 177.864 503.759 176.425 504.252 175.07C504.745 173.715 505.501 172.472 506.477 171.411C507.454 170.35 508.631 169.494 509.941 168.891C511.25 168.288 512.667 167.951 514.108 167.899C515.549 167.847 516.985 168.081 518.335 168.588C519.685 169.095 520.921 169.864 521.971 170.852C523.022 171.839 523.866 173.025 524.455 174.341C525.044 175.657 525.366 177.076 525.403 178.517C525.409 179.121 525.367 179.724 525.279 180.321C529.603 179.476 533.83 178.194 537.896 176.497C537.513 176.072 537.162 175.618 536.848 175.14C535.313 172.686 534.817 169.724 535.468 166.904C536.119 164.084 537.864 161.638 540.318 160.105C542.773 158.571 545.736 158.075 548.556 158.726C551.377 159.376 553.823 161.121 555.357 163.574C555.654 164.065 555.907 164.581 556.113 165.117C559.407 162.22 562.404 159.001 565.059 155.509C564.529 155.346 564.013 155.14 563.516 154.893C562.251 154.22 561.131 153.305 560.22 152.2C559.309 151.095 558.624 149.821 558.205 148.452C557.786 147.082 557.641 145.643 557.778 144.218C557.916 142.792 558.332 141.407 559.005 140.143C559.677 138.878 560.592 137.758 561.698 136.847C562.803 135.936 564.077 135.251 565.447 134.832C566.817 134.414 568.256 134.269 569.682 134.406C571.108 134.543 572.493 134.96 573.758 135.632C574.224 135.899 574.668 136.204 575.085 136.542C576.474 132.413 577.451 128.156 578 123.835C577.518 123.941 577.028 124.008 576.535 124.035C575.093 124.105 573.651 123.887 572.294 123.396C570.936 122.904 569.69 122.147 568.627 121.17C567.565 120.193 566.707 119.014 566.103 117.703C565.5 116.392 565.162 114.974 565.111 113.531C565.06 112.089 565.296 110.65 565.806 109.299C566.315 107.949 567.088 106.713 568.078 105.663C569.069 104.613 570.259 103.77 571.578 103.184C572.897 102.597 574.32 102.278 575.763 102.246C576.243 102.245 576.722 102.276 577.198 102.338C576.35 98.1112 575.084 93.9787 573.419 90.0017C573.09 90.2993 572.739 90.5725 572.37 90.819C569.916 92.3527 566.952 92.8487 564.132 92.198C561.312 91.5473 558.865 89.8032 557.331 87.3493C555.797 84.8954 555.301 81.9327 555.952 79.113C556.603 76.2933 558.347 73.8476 560.802 72.314C561.182 72.1022 561.573 71.9117 561.974 71.7434C559.134 68.5363 555.994 65.6084 552.596 62.9998C552.442 63.3699 552.334 63.74 552.149 64.1101C550.79 66.6642 548.473 68.5743 545.706 69.4202C542.939 70.2661 539.95 69.9785 537.395 68.6207C534.84 67.2628 532.93 64.946 532.084 62.1798C531.238 59.4137 531.525 56.4247 532.883 53.8706C533.084 53.5159 533.331 53.2075 533.562 52.8683C529.529 51.52 525.376 50.5596 521.161 50C521.161 50.3701 521.3 50.7248 521.315 51.1103C521.417 54.0018 520.366 56.8156 518.394 58.9325C516.421 61.0494 513.688 62.2961 510.796 62.3984C507.903 62.5006 505.089 61.45 502.972 59.4777C500.854 57.5054 499.607 54.7729 499.505 51.8813C499.507 51.4792 499.533 51.0776 499.582 50.6785V50.6785ZM510.857 71.0957C519.64 70.7871 528.318 73.0891 535.793 77.7108C543.267 82.3325 549.203 89.0663 552.85 97.0607C556.497 105.055 557.691 113.951 556.28 122.624C554.87 131.297 550.92 139.356 544.928 145.784C538.936 152.213 531.173 156.72 522.619 158.737C514.065 160.754 505.105 160.19 496.872 157.116C488.638 154.042 481.502 148.596 476.364 141.467C471.226 134.338 468.319 125.846 468.008 117.065C467.8 111.233 468.743 105.418 470.784 99.9504C472.826 94.4832 475.924 89.4718 479.904 85.2026C483.883 80.9334 488.665 77.4901 493.976 75.0696C499.288 72.649 505.024 71.2987 510.857 71.0957V71.0957Z" fill="#BFD2FF"/>
</g>
<path id="Vector_16" d="M435.33 108.15C433.929 107.255 432.19 106.514 431.659 105.074C430.774 102.781 433.623 100.376 432.915 98.0826C432.335 96.1112 429.695 95.2862 427.312 95.0206C424.929 94.7549 422.45 94.3914 421.065 92.6996C419.954 91.3014 420.212 89.4558 419.954 87.764C419.674 86.0612 418.838 84.4637 417.546 83.1603C416.253 81.857 414.558 80.9024 412.66 80.4096C408.635 79.4168 405.125 82.5907 401.76 83.8631C400.008 84.5478 398.481 85.6003 397.314 86.9257C396.148 88.251 395.379 89.8077 395.078 91.4552C394.477 94.7835 394.686 98.1842 395.69 101.438C396.688 104.685 397.425 107.988 397.896 111.323C398.044 114.909 397.427 118.488 396.077 121.88C395.1 124.489 395.278 127.32 396.576 129.821C398.041 132.003 400.987 133.009 403.773 133.708C409.143 135.202 414.82 135.678 420.421 135.107C425.742 134.49 430.635 132.244 434.219 128.773C436.683 127.039 438.576 124.773 439.709 122.201C441.77 117.294 440.16 111.17 435.33 108.15Z" fill="#485070"/>
<path id="Vector_17" d="M407.428 91.2175C407.763 92.2361 407.86 93.3027 407.714 94.3544C407.567 95.4062 407.18 96.4218 406.574 97.3416C406.172 97.9428 405.544 98.558 404.739 98.516C403.934 98.4741 403.322 97.5792 403.032 96.8242C402.225 94.733 401.716 92.5635 401.519 90.3646C401.39 88.9664 401.68 86.5895 403.885 87.0509C405.592 87.4005 406.977 89.9172 407.428 91.2175Z" fill="#FF6EA1"/>
<path id="Vector_18" d="M407.412 124.145C405.801 129.052 396.592 131.429 391.311 125.767C390.651 125.068 390.055 124.368 389.475 123.599C383.76 124.578 375.275 126.731 371.459 130.744C370.325 132.117 369.515 133.671 369.076 135.316C367.095 141.189 365.437 147.159 364.133 153.185C363.924 153.863 363.924 154.577 364.133 155.254C364.566 156.034 365.248 156.689 366.097 157.142C373.987 162.539 376.064 171.264 378.656 179.135C382.6 191.104 384.404 207.644 388.316 219.613C401.197 220.466 454.973 209.825 461.445 204.96C452.188 190.461 444.669 164.301 441.77 146.124C440.515 138.406 437.037 131.066 433.64 123.837C432.835 122.145 432.126 118.244 430.645 117.154C428.681 115.756 409.955 118.161 407.975 118.216C407.975 119.181 408.088 120.146 408.12 121.097C408.07 122.139 407.831 123.167 407.412 124.145V124.145Z" fill="#FF6EA1"/>
<path id="Vector_19" d="M388.252 116.231C387.642 114.534 386.793 112.909 385.724 111.393C388.898 111.312 391.972 110.406 394.547 108.793C395.82 107.983 397.005 107.075 398.089 106.08C398.492 105.731 399.087 104.85 399.699 104.207C398.846 105.074 400.939 109.911 401.309 110.904C402.147 113.018 403.442 114.973 405.125 116.664C406.816 118.3 407.927 118.58 408.233 120.859C408.459 123.374 408.035 125.901 406.993 128.255C406.498 129.723 405.47 131.013 404.063 131.933C403.161 132.352 402.171 132.607 401.153 132.684C400.134 132.761 399.109 132.658 398.138 132.38C394.805 131.625 390.232 129.206 389.041 126.186C388.413 124.606 389.041 123.781 389.282 122.159C389.387 120.144 389.037 118.13 388.252 116.231V116.231Z" fill="#FFC1A6"/>
<path id="Vector_20" d="M389.379 121.404C389.379 121.237 389.379 121.069 389.379 120.901C389.211 119.313 388.838 117.747 388.268 116.231C387.658 114.534 386.809 112.909 385.74 111.393C388.914 111.312 391.988 110.406 394.563 108.793C395.836 107.983 397.021 107.075 398.105 106.08C398.508 105.731 399.104 104.85 399.715 104.207C399.812 105.101 399.957 105.996 400.134 106.877C399.811 109.869 398.665 112.75 396.794 115.278C394.922 117.806 392.379 119.907 389.379 121.404V121.404Z" fill="#E3856D"/>
<path id="Vector_21" d="M368.142 100.683C369.439 105.228 372.414 109.279 376.611 112.218C377.72 113.045 379.013 113.664 380.411 114.036C381.112 114.213 381.85 114.249 382.569 114.142C383.288 114.036 383.971 113.789 384.565 113.421C386.175 112.302 386.465 110.289 386.577 108.485C386.929 105.124 386.805 101.739 386.207 98.4042C385.601 95.0488 383.78 91.9484 381.006 89.5537C378.672 87.6801 372.28 84.9676 369.462 87.5543C366.403 90.3506 367.192 97.3415 368.142 100.683Z" fill="#485070"/>
<path id="Vector_22" d="M371.475 92.7695C372.022 89.5956 376.144 91.9446 379.525 90.6023C382.439 89.4418 384.645 88.4211 387.93 88.6309C390.894 88.7674 393.697 89.8475 395.803 91.6649C396.35 92.1683 396.849 92.6716 397.316 93.1889C398.655 95.0413 399.792 96.9979 400.714 99.0334V99.1732C401.021 103.079 399.972 106.976 397.703 110.359C396.699 111.971 395.218 113.322 393.412 114.27C391.606 115.219 389.541 115.732 387.431 115.756C385.018 115.719 382.7 114.936 380.894 113.546C378.917 111.976 377.281 110.11 376.063 108.038C374.147 104.962 370.927 96.251 371.475 92.7695Z" fill="#FFC1A6"/>
<path id="Vector_23" d="M387.414 98.7118C383.438 97.9008 379.364 97.3975 375.677 95.8315C372.891 94.7186 370.641 92.7945 369.317 90.3926C368.094 87.9457 368.931 86.198 370.557 84.1007C372.936 81.0627 376.498 78.873 380.588 77.9348C384.629 77.012 389.685 78.3682 393.565 79.5427C396.299 80.2954 398.747 81.6773 400.649 83.5415C403.869 86.8552 404.884 92.5598 404.626 96.7543C404.451 98.4855 404.046 100.193 403.419 101.844C402.952 103.242 402.13 104.822 400.198 105.018C398.926 105.157 396.35 101.984 395.046 101.284C392.955 100.206 390.685 99.4139 388.316 98.9355L387.414 98.7118Z" fill="#485070"/>
<path id="Vector_24" d="M381.296 102.515C381.317 102.717 381.406 102.909 381.553 103.066C381.699 103.224 381.896 103.34 382.119 103.4C382.342 103.46 382.581 103.461 382.804 103.403C383.028 103.345 383.226 103.23 383.375 103.074C383.523 102.917 383.614 102.726 383.637 102.524C383.659 102.323 383.613 102.12 383.502 101.941C383.391 101.763 383.222 101.617 383.015 101.522C382.809 101.428 382.575 101.389 382.343 101.41C382.19 101.423 382.042 101.461 381.907 101.523C381.771 101.585 381.652 101.67 381.554 101.773C381.457 101.876 381.384 101.994 381.34 102.122C381.295 102.249 381.281 102.383 381.296 102.515Z" fill="#485070"/>
<path id="Vector_25" d="M383.035 99.6065C382.244 99.4703 381.424 99.5635 380.701 99.8717" stroke="#485070" stroke-width="0.75" stroke-miterlimit="10" stroke-linecap="round"/>
<path id="Vector_26" d="M374.148 104.179C374.171 104.38 374.263 104.57 374.411 104.726C374.559 104.881 374.757 104.995 374.98 105.053C375.203 105.111 375.441 105.11 375.663 105.051C375.885 104.991 376.082 104.876 376.229 104.719C376.376 104.562 376.466 104.371 376.487 104.17C376.509 103.969 376.461 103.767 376.35 103.589C376.239 103.411 376.07 103.266 375.865 103.172C375.659 103.078 375.425 103.039 375.194 103.06C374.886 103.092 374.605 103.226 374.41 103.435C374.214 103.644 374.12 103.911 374.148 104.179V104.179Z" fill="#485070"/>
<path id="Vector_27" d="M375.758 101.298C374.972 101.161 374.156 101.254 373.439 101.564" stroke="#485070" stroke-width="0.75" stroke-miterlimit="10" stroke-linecap="round"/>
<path id="Vector_28" d="M378.301 104.319C378.539 105.205 378.371 106.137 377.835 106.919C377.663 107.101 377.567 107.327 377.561 107.562C377.599 107.685 377.68 107.795 377.792 107.878C377.904 107.96 378.043 108.011 378.189 108.024C378.479 108.034 378.769 107.996 379.042 107.912" stroke="#485070" stroke-width="0.75" stroke-miterlimit="10" stroke-linecap="round"/>
<path id="Vector_29" d="M384.194 109.394C383.699 109.852 383.087 110.203 382.408 110.419C381.729 110.635 381.001 110.71 380.282 110.638" stroke="#485070" stroke-width="0.75" stroke-miterlimit="10" stroke-linecap="round"/>
<path id="Vector_30" d="M400.987 98.9215C401.072 99.653 400.905 100.39 400.508 101.039C400.11 101.688 399.5 102.22 398.755 102.569C398.009 102.917 397.162 103.066 396.319 102.996C395.476 102.926 394.676 102.641 394.02 102.176C393.364 101.712 392.881 101.089 392.632 100.386C392.384 99.6835 392.38 98.9325 392.623 98.2282C392.865 97.5238 393.342 96.8977 393.994 96.4288C394.646 95.9599 395.444 95.6694 396.286 95.5938C396.846 95.5436 397.413 95.5898 397.953 95.7299C398.492 95.8701 398.995 96.1013 399.432 96.4105C399.869 96.7196 400.231 97.1005 400.498 97.5314C400.765 97.9623 400.931 98.4347 400.987 98.9215V98.9215Z" fill="#FFC1A6"/>
<path id="Vector_31" d="M397.365 97.6492C397.04 97.632 396.716 97.6908 396.427 97.8192C396.137 97.9477 395.893 98.1411 395.718 98.3795C395.544 98.6179 395.447 98.8925 395.436 99.1747C395.425 99.4569 395.502 99.7364 395.658 99.9841C395.824 99.8195 396.044 99.7021 396.288 99.6472C396.532 99.5924 396.789 99.6026 397.027 99.6765C397.262 99.7559 397.465 99.8937 397.611 100.073C397.757 100.252 397.84 100.464 397.848 100.683" stroke="#485070" stroke-width="0.75" stroke-linecap="round" stroke-linejoin="round"/>
<path id="Vector_32" d="M500.377 340.849H160.733C152.961 340.849 146.661 346.32 146.661 353.069V518.558C146.661 525.307 152.961 530.779 160.733 530.779H500.377C508.149 530.779 514.449 525.307 514.449 518.558V353.069C514.449 346.32 508.149 340.849 500.377 340.849Z" fill="#DCE4FF" stroke="#485070" stroke-width="0.75" stroke-miterlimit="10"/>
<path id="Vector_33" d="M541.675 531.016H119.435C119.435 535.058 121.284 538.935 124.575 541.793C127.866 544.651 132.33 546.256 136.985 546.256H524.125C528.78 546.256 533.244 544.651 536.535 541.793C539.826 538.935 541.675 535.058 541.675 531.016V531.016Z" fill="#BAC5EF" stroke="#485070" stroke-width="0.75" stroke-miterlimit="10"/>
<path id="Vector_34" d="M494.629 348.316H166.481C160.408 348.316 155.484 352.591 155.484 357.865V515.273C155.484 520.547 160.408 524.822 166.481 524.822H494.629C500.702 524.822 505.626 520.547 505.626 515.273V357.865C505.626 352.591 500.702 348.316 494.629 348.316Z" fill="#545D78"/>
<path id="Vector_35" d="M335.506 344.415C335.506 344.882 335.346 345.339 335.047 345.727C334.748 346.116 334.323 346.419 333.826 346.598C333.329 346.777 332.782 346.823 332.254 346.732C331.726 346.641 331.241 346.416 330.861 346.085C330.48 345.755 330.221 345.334 330.116 344.876C330.011 344.417 330.065 343.942 330.271 343.51C330.477 343.079 330.826 342.71 331.273 342.45C331.721 342.19 332.247 342.052 332.785 342.052C333.143 342.05 333.498 342.11 333.829 342.228C334.16 342.346 334.461 342.52 334.714 342.74C334.967 342.959 335.167 343.221 335.303 343.508C335.439 343.796 335.508 344.104 335.506 344.415V344.415Z" fill="#333333"/>
<path id="Vector_36" d="M191.582 169.152L191.582 523.788H469.512V169.152H191.582Z" fill="#FEFEFF"/>
<path id="Vector_37" d="M356.083 495.656L319.099 455.64L286.93 491.434L259.044 465.26L262.699 462.338L286.608 484.778L319.035 448.691L355.052 487.659L375.967 450.593L420.099 443.812L420.952 448.062L379.316 454.452L356.083 495.656Z" fill="#E6EDFF"/>
<path id="Vector_38" d="M426.893 445.937C426.893 444.828 426.513 443.744 425.802 442.822C425.091 441.901 424.08 441.185 422.899 440.763C421.717 440.342 420.418 440.236 419.167 440.457C417.915 440.679 416.768 441.218 415.871 442.008C414.973 442.797 414.366 443.8 414.127 444.889C413.888 445.979 414.027 447.105 414.526 448.126C415.026 449.147 415.864 450.015 416.934 450.621C418.003 451.227 419.256 451.543 420.534 451.53C422.228 451.511 423.845 450.914 425.036 449.867C426.226 448.82 426.893 447.408 426.893 445.937V445.937Z" fill="#FF6EA1"/>
<path id="Vector_39" d="M362.201 491.657C362.201 490.551 361.823 489.47 361.115 488.55C360.408 487.63 359.402 486.914 358.225 486.49C357.048 486.067 355.753 485.956 354.504 486.172C353.255 486.388 352.107 486.92 351.207 487.703C350.306 488.485 349.692 489.481 349.444 490.566C349.195 491.651 349.323 492.776 349.81 493.798C350.298 494.819 351.123 495.693 352.183 496.307C353.242 496.922 354.487 497.25 355.76 497.25C357.469 497.25 359.107 496.661 360.314 495.612C361.522 494.563 362.201 493.141 362.201 491.657Z" fill="#628AEC"/>
<path id="Vector_40" d="M383.26 452.522C383.26 451.416 382.883 450.335 382.175 449.415C381.467 448.495 380.462 447.778 379.285 447.355C378.108 446.932 376.813 446.821 375.564 447.037C374.314 447.253 373.167 447.785 372.266 448.567C371.366 449.35 370.752 450.346 370.504 451.431C370.255 452.516 370.383 453.64 370.87 454.662C371.358 455.684 372.183 456.558 373.242 457.172C374.301 457.787 375.546 458.115 376.82 458.115C378.528 458.115 380.166 457.526 381.374 456.477C382.582 455.428 383.26 454.005 383.26 452.522Z" fill="#FFB861"/>
<path id="Vector_41" d="M318.826 458.059C322.347 458.059 325.201 455.58 325.201 452.522C325.201 449.464 322.347 446.985 318.826 446.985C315.304 446.985 312.45 449.464 312.45 452.522C312.45 455.58 315.304 458.059 318.826 458.059Z" fill="#FFB861"/>
<path id="Vector_42" d="M287.526 492.986C291.047 492.986 293.902 490.507 293.902 487.449C293.902 484.391 291.047 481.912 287.526 481.912C284.005 481.912 281.15 484.391 281.15 487.449C281.15 490.507 284.005 492.986 287.526 492.986Z" fill="#FF6EA1"/>
<path id="Vector_43" d="M268.624 464.91C268.624 463.804 268.246 462.723 267.538 461.803C266.831 460.883 265.825 460.166 264.648 459.743C263.471 459.32 262.176 459.209 260.927 459.425C259.678 459.641 258.53 460.173 257.629 460.955C256.729 461.738 256.115 462.734 255.867 463.819C255.618 464.904 255.746 466.028 256.233 467.05C256.721 468.072 257.546 468.946 258.605 469.56C259.664 470.175 260.91 470.503 262.183 470.503C263.891 470.503 265.53 469.914 266.737 468.865C267.945 467.816 268.624 466.393 268.624 464.91Z" fill="#3FD4C7"/>
<path id="Vector_44" d="M234.2 429.886V505.374H428.181" stroke="#485070" stroke-width="0.75" stroke-miterlimit="10"/>
<path id="Vector_45" d="M279.25 309.376H249.641V369.093H279.25V309.376Z" fill="#FFB861"/>
<path id="Vector_46" d="M325.008 280.154H295.399V369.093H325.008V280.154Z" fill="#FF6EA1"/>
<path id="Vector_47" d="M244.118 292.262C279.761 278.123 311.479 257.484 337.116 231.749" stroke="#485070" stroke-width="0.75" stroke-miterlimit="10" stroke-linecap="round"/>
<path id="Vector_48" d="M339.885 228.995L337.776 234.21L336.907 231.917L334.186 231.441L339.885 228.995Z" fill="#485070"/>
<path id="Vector_49" d="M370.782 239.816H341.173V369.093H370.782V239.816Z" fill="#3FD4C7"/>
<path id="Vector_50" d="M416.557 296.359H386.948V369.093H416.557V296.359Z" fill="#628AEC"/>
<path id="Vector_51" d="M232.22 242.235V369.288H430.017" stroke="#485070" stroke-width="0.75" stroke-miterlimit="10"/>
<path id="Vector_52" d="M429.727 381.55H231.093V390.233H429.727V381.55Z" fill="#E6EDFF"/>
<path id="Vector_53" d="M389.846 209.602H270.475V218.284H389.846V209.602Z" fill="#E6EDFF"/>
<path id="Vector_54" d="M429.486 194.431H230.851V203.114H429.486V194.431Z" fill="#E6EDFF"/>
<path id="Vector_55" d="M429.727 397.476H231.093V406.158H429.727V397.476Z" fill="#E6EDFF"/>
<path id="Vector_56" d="M429.727 413.401H231.093V422.084H429.727V413.401Z" fill="#E6EDFF"/>
<path id="Vector_57" d="M422.192 117.503C419.873 117.979 417.587 118.538 415.301 119.097C414.907 119.17 414.534 119.313 414.206 119.517C413.836 119.876 413.6 120.325 413.53 120.803C412.831 124.228 412.935 127.74 413.834 131.13C414.733 134.519 416.409 137.717 418.762 140.531C420.179 142.069 421.854 143.412 423.383 144.852C424.913 146.292 426.926 147.648 428.214 149.046C429.824 150.794 430.452 153.618 431.176 155.702C432.863 160.502 433.901 165.457 434.267 170.467C434.525 173.78 434.702 177.555 437.632 179.695C440.563 181.834 445.151 181.275 448.146 179.261C451.003 177.054 453.08 174.189 454.136 170.998C457.571 162.906 459.151 154.309 458.789 145.691C458.354 137.875 455.569 128.451 449.789 122.271C445.892 118.077 439.484 116.287 433.334 116.203C429.573 116.242 425.831 116.678 422.192 117.503V117.503Z" fill="#FF6EA1"/>
<path id="Vector_58" d="M427.698 164.301C429.845 154.262 431.992 144.223 434.139 134.184" stroke="#485070" stroke-width="0.75" stroke-miterlimit="10"/>
<path id="Vector_59" d="M429.936 136.099C430.677 137.735 431.418 139.371 432.142 141.021" stroke="#485070" stroke-width="0.75" stroke-miterlimit="10"/>
<path id="Vector_60" d="M386.368 185.958C387.191 185.704 388.055 185.562 388.928 185.539C396.753 185.399 404.369 184.7 412.258 184.001C417.539 183.54 422.804 183.288 428.069 183.218C432.303 183.218 437.214 183.959 441.352 182.952C445.49 181.946 448.694 180.813 450.883 177.681C451.928 176.174 452.879 174.62 453.733 173.025C454.309 172.183 454.568 171.205 454.474 170.229C454.136 168.831 452.381 168.006 450.658 167.433C447.003 166.258 444.733 164.44 440.531 164.063C436.146 163.784 431.737 164.086 427.457 164.958C419.084 166.482 410.712 167.111 402.485 169.236C393.283 171.782 384.28 174.841 375.532 178.394C372.276 179.461 369.274 181.039 366.677 183.05C364.967 184.435 363.923 186.329 363.752 188.354C363.582 190.379 364.299 192.385 365.759 193.97C366.201 194.463 366.78 194.85 367.442 195.095C368.104 195.339 368.827 195.434 369.543 195.368C371.153 195.131 372.119 193.369 370.831 192.852C379.284 195.648 379.509 188.07 386.368 185.958Z" fill="#FFC1A6"/>
<path id="Vector_61" d="M359.931 187.119V186.672L359.544 187.496L359.931 187.119Z" fill="#FF6EA1"/>
<path id="Vector_62" d="M381.86 130.339C381.371 129.529 380.629 128.855 379.718 128.395C376.981 126.997 371.249 129.136 368.786 130.311C368.256 130.562 367.745 130.842 367.256 131.15C364.356 132.842 361.725 134.859 359.431 137.148C358.643 137.903 357.821 138.658 357.113 139.427C345.762 150.822 338.42 163.364 340.256 178.576C340.658 181.834 341.399 185.357 344.2 187.566C345.35 188.411 346.705 189.018 348.163 189.342C349.621 189.667 351.146 189.7 352.621 189.44C355.434 188.938 358.022 187.744 360.076 186L359.995 186.63L360.414 185.735C364.89 181.96 365.936 176.744 367.031 171.655L377.706 148.921C379.412 145.271 384.903 135.302 381.86 130.339Z" fill="#FF6EA1"/>
<path id="Vector_63" d="M363.714 242.92C368.625 235.93 359.689 234.825 358.385 228.617C358.24 227.867 358.24 227.102 358.385 226.352C359.625 219.571 360.172 212.887 360.784 205.994C361.203 201.38 361.847 196.78 362.732 192.222C363.312 189.146 364.696 185.749 364.857 182.547C364.777 181.526 364.648 180.506 364.455 179.513C363.691 178.26 362.646 177.152 361.383 176.254C360.119 175.356 358.662 174.686 357.097 174.284C354.902 173.719 352.582 173.627 350.338 174.017C348.093 174.407 345.992 175.266 344.216 176.521C343.325 177.712 342.529 178.954 341.833 180.24C341.001 183.586 340.682 187.014 340.884 190.433C341.173 197.871 340.4 205.183 341.431 212.566C342.774 220.823 344.775 228.99 347.42 237.006C348.09 239.952 349.419 242.755 351.333 245.255C352.785 246.942 354.91 248.099 357.291 248.5C359.672 248.9 362.14 248.516 364.213 247.423C364.87 247.119 365.428 246.677 365.836 246.137C366.244 245.597 366.489 244.977 366.548 244.333C366.484 242.99 364.584 241.872 363.714 242.92Z" fill="#FFC1A6"/>
<path id="Vector_64" d="M364.487 179.681C366.789 170.55 370.932 161.846 376.724 153.968" stroke="#485070" stroke-width="0.75" stroke-miterlimit="10"/>
<path id="Vector_65" d="M372.537 159.589L376.724 157.24" stroke="#485070" stroke-width="0.75" stroke-miterlimit="10"/>
<path id="Vector_66" d="M124.072 334.991C130.061 340.933 132.509 348.973 134.553 356.467C137.172 366.189 139.802 375.897 142.443 385.591C143.159 387.876 143.601 390.218 143.763 392.582C143.629 396.692 142.915 400.773 141.638 404.732C140.334 409.374 137.129 409.095 132.364 408.675C124.829 408.032 114.653 406.047 109.501 400.719C107.086 398.189 106.281 394.791 105.62 391.561C104.654 387.115 103.704 382.669 102.738 378.209C98.826 360.032 94.9135 341.283 99.3412 323.204C108.966 324.377 117.764 328.57 124.072 334.991V334.991Z" fill="white"/>
<path id="Vector_67" d="M135.133 392.484C138.466 393.882 141.573 395.616 144.793 397.294C149.881 399.951 155.194 401.824 160.411 404.285C161.838 405.046 163.399 405.599 165.032 405.921C167.817 406.354 170.764 405.445 173.565 405.767C177.333 406.214 180.537 409.123 181.889 412.968C184.192 419.441 178.814 417.022 175.256 416.463L166.932 415.135C156.17 413.49 145.294 412.462 134.376 412.059C128.306 411.779 117.615 411.905 113.075 407.095C110.869 404.76 108.422 394.512 111.32 392.051C111.856 391.636 112.495 391.334 113.188 391.17C118.832 389.5 124.939 389.417 130.641 390.932C132.178 391.358 133.679 391.877 135.133 392.484V392.484Z" fill="#9C5240"/>
<path id="Vector_68" d="M131.188 467.371H24.7628C23.9225 467.384 23.0875 467.251 22.3068 466.981C21.526 466.711 20.8151 466.308 20.2155 465.797C19.616 465.285 19.1398 464.675 18.8148 464.002C18.4898 463.329 18.3224 462.606 18.3226 461.876C18.3224 461.146 18.4898 460.424 18.8148 459.75C19.1398 459.077 19.616 458.467 20.2155 457.956C20.8151 457.444 21.526 457.041 22.3068 456.771C23.0875 456.501 23.9225 456.368 24.7628 456.381H131.188C132.866 456.381 134.476 456.96 135.663 457.991C136.849 459.021 137.516 460.419 137.516 461.876V461.876C137.516 463.333 136.849 464.731 135.663 465.762C134.476 466.792 132.866 467.371 131.188 467.371V467.371Z" fill="#485070"/>
<path id="Vector_69" d="M117.149 394.847V362.381C117.149 357.493 112.586 353.531 106.957 353.531H23.6519C18.0232 353.531 13.4602 357.493 13.4602 362.381V394.847C13.4602 399.735 18.0232 403.698 23.6519 403.698H106.957C112.586 403.698 117.149 399.735 117.149 394.847Z" fill="#485070"/>
<path id="Vector_70" d="M33.1674 395.546H26.7271V462.296H33.1674V395.546Z" fill="#485070"/>
<path id="Vector_71" d="M102.642 395.546H96.2015V462.296H102.642V395.546Z" fill="#485070"/>
<path id="Vector_72" d="M77.8146 464.616H71.3743V545.697H77.8146V464.616Z" fill="#485070"/>
<path id="Vector_73" d="M29.4159 464.616H22.9757V545.697H29.4159V464.616Z" fill="#485070"/>
<path id="Vector_74" d="M132.653 464.616H126.213V545.697H132.653V464.616Z" fill="#485070"/>
<path id="Vector_75" d="M99.5988 464.616H93.1585V545.697H99.5988V464.616Z" fill="#485070"/>
<path id="Vector_76" d="M197.04 493.07C193.401 493.741 190.89 493.895 186.575 494.468C180.295 495.241 174 495.866 167.689 496.341C169.299 506.199 170.909 514.867 171.215 516.601C172.825 524.151 171.955 543.069 175.835 550.255C180.553 550.759 184.643 550.087 189.07 549.766C191.437 530.807 193.369 511.819 197.04 493.07Z" fill="#CF9378"/>
<path id="Vector_77" d="M164.179 509.652C164.143 511.202 164.277 512.752 164.581 514.28C169.85 518.769 176.878 521.361 184.256 521.537C188.366 521.69 192.475 521.192 196.38 520.068C196.831 512.686 197.335 505.304 197.893 497.921C198.602 488.316 199.165 478.71 200.55 469.161C201.529 460.58 201.583 451.939 200.711 443.35C197.893 433.968 190.713 431.396 190.713 431.396C190.713 431.396 170.651 424.503 155.291 421.608C136.421 418.015 117.245 415.344 98.2785 411.821C89.1655 410.101 73.9182 410.423 69.2973 419.078C63.7587 429.005 74.6749 442.315 83.3693 448.132C92.4179 454.116 103.576 457.136 114.685 459.233C130.423 462.216 146.513 463.563 162.617 463.246C162.102 463.218 164.162 506.212 164.179 509.652Z" fill="#66A3F2"/>
<path id="Vector_78" d="M162.601 463.288C159.107 460.268 155.79 457.066 152.296 454.046C147.08 449.544 142.008 444.916 136.824 440.386C126.535 431.396 116.182 422.447 106.12 413.261C103.479 412.786 100.839 412.31 98.198 411.863C89.0851 410.143 73.8377 410.465 69.2168 419.12C63.7587 429.005 74.6749 442.315 83.3693 448.132C92.4179 454.116 103.576 457.136 114.685 459.233C130.423 462.216 146.513 463.563 162.617 463.246C162.61 463.26 162.605 463.274 162.601 463.288V463.288Z" fill="#485070"/>
<path id="Vector_79" d="M162.746 465.959C162.746 461.582 163.438 456.241 163.454 451.865" stroke="#485070" stroke-width="0.397545" stroke-miterlimit="10"/>
<path id="Vector_80" d="M175.691 427.159C162.198 423.398 149.929 419.917 130.077 417.582" stroke="#485070" stroke-width="0.75" stroke-miterlimit="10"/>
<path id="Vector_81" d="M173.549 555.582H216.731V559.637H175.095C174.668 559.637 174.258 559.49 173.956 559.227C173.654 558.965 173.485 558.61 173.485 558.239V555.526L173.549 555.582Z" fill="#B3B3B3"/>
<path id="Vector_82" d="M216.135 556.673C216.288 556.487 216.423 556.291 216.538 556.086C216.942 555.038 216.947 553.906 216.553 552.856C216.158 551.806 215.385 550.894 214.348 550.255C212.193 548.95 209.756 548.036 207.183 547.571C201.867 546.159 196.444 545.07 190.954 544.313C189.489 544.145 173.758 542.915 173.839 542.272C173.597 545.725 173.34 549.165 173.098 552.604C172.809 553.949 172.809 555.328 173.098 556.673H216.135Z" fill="#485070"/>
<path id="Vector_83" d="M180.939 539.433C182.184 538.618 183.69 538.16 185.248 538.123C186.806 538.085 188.339 538.47 189.634 539.224C190.895 540.017 191.907 541.073 192.577 542.295C193.246 543.516 193.552 544.864 193.466 546.215C193.482 546.468 193.441 546.723 193.345 546.963C193.248 547.202 193.098 547.423 192.902 547.613C192.432 547.896 191.861 548.025 191.292 547.976L183.854 548.046C182.244 548.046 180.344 548.382 179.265 547.179C177.381 545.026 179.136 541.041 180.939 539.433Z" fill="#485070"/>
<path id="Vector_84" d="M197.346 545.306C196.614 545.255 195.883 545.41 195.26 545.747C194.636 546.084 194.154 546.586 193.884 547.179" stroke="#B3B3B3" stroke-width="0.75" stroke-miterlimit="10" stroke-linecap="round"/>
<path id="Vector_85" d="M198.232 548.591C198.623 548.048 199.163 547.598 199.803 547.281C200.444 546.964 201.165 546.79 201.903 546.774" stroke="#B3B3B3" stroke-width="0.75" stroke-miterlimit="10" stroke-linecap="round"/>
<path id="Vector_86" d="M203.706 549.095C203.881 548.692 204.191 548.344 204.596 548.095C205 547.846 205.48 547.707 205.976 547.697" stroke="#B3B3B3" stroke-width="0.75" stroke-miterlimit="10" stroke-linecap="round"/>
<path id="Vector_87" d="M125.521 487.98C119.982 488.651 114.438 489.211 108.889 489.658C113.091 507.597 115.023 525.871 118.453 543.935C123.17 543.935 127.469 543.041 132.476 543.139C133.442 537.672 135.358 505.206 138.321 486.163C134.1 486.992 129.826 487.599 125.521 487.98V487.98Z" fill="#CF9378"/>
<path id="Vector_88" d="M109.71 513.511C110.853 517.552 112.19 520.041 116.778 521.62C120.765 523.009 125.081 523.532 129.353 523.144C133.189 522.606 136.779 521.154 139.722 518.95C139.722 518.95 145.647 442.343 138.289 432.528C129.272 420.518 109.565 418.043 94.189 415.121C80.7449 412.548 67.1237 410.451 53.5348 408.13C50.218 419.064 52.617 431.899 57.415 441.98V442.134C59.3299 446.013 62.4275 449.365 66.374 451.829C70.3205 454.293 74.9664 455.775 79.8111 456.116C87.0069 456.647 94.2304 456.843 101.45 456.703C101.434 456.773 105.62 499.04 109.71 513.511Z" fill="#66A3F2"/>
<path id="Vector_89" d="M101.66 459.513C101.66 455.137 102.352 449.796 102.368 445.419" stroke="#485070" stroke-width="0.397545" stroke-miterlimit="10"/>
<path id="Vector_90" d="M117.326 554.995H160.508V559.05H118.871C118.444 559.05 118.035 558.903 117.733 558.64C117.431 558.378 117.261 558.022 117.261 557.652V554.939L117.326 554.995Z" fill="#B3B3B3"/>
<path id="Vector_91" d="M159.896 556.086C160.06 555.904 160.2 555.707 160.314 555.498C160.718 554.451 160.723 553.319 160.329 552.269C159.935 551.219 159.162 550.307 158.125 549.668C155.97 548.362 153.532 547.449 150.96 546.984C145.644 545.572 140.221 544.483 134.73 543.726C133.265 543.558 117.535 542.328 117.599 541.684L116.875 552.017C116.577 553.361 116.577 554.742 116.875 556.086H159.896Z" fill="#485070"/>
<path id="Vector_92" d="M124.764 538.846C126.005 538.031 127.509 537.572 129.065 537.534C130.62 537.497 132.151 537.882 133.442 538.636C134.707 539.429 135.722 540.484 136.394 541.705C137.067 542.927 137.375 544.275 137.29 545.627C137.307 545.881 137.266 546.135 137.169 546.375C137.073 546.615 136.922 546.836 136.727 547.026C136.257 547.308 135.686 547.437 135.117 547.389L127.678 547.473C126.068 547.473 124.168 547.795 123.09 546.592C121.158 544.439 122.977 540.412 124.764 538.846Z" fill="#485070"/>
<path id="Vector_93" d="M141.106 544.718C140.375 544.67 139.645 544.826 139.022 545.163C138.399 545.5 137.917 546 137.645 546.592" stroke="#B3B3B3" stroke-width="0.75" stroke-miterlimit="10" stroke-linecap="round"/>
<path id="Vector_94" d="M142.008 548.004C142.399 547.461 142.939 547.011 143.58 546.694C144.22 546.377 144.942 546.202 145.679 546.187" stroke="#B3B3B3" stroke-width="0.75" stroke-miterlimit="10" stroke-linecap="round"/>
<path id="Vector_95" d="M147.466 548.508C147.647 548.105 147.96 547.758 148.366 547.509C148.773 547.26 149.255 547.121 149.752 547.109" stroke="#B3B3B3" stroke-width="0.75" stroke-miterlimit="10" stroke-linecap="round"/>
<path id="Vector_96" d="M51.7154 422.965C52.1018 424.726 52.4882 426.488 52.8585 428.25C59.8623 425.076 68.2347 425.761 76.1723 425.761C93.5742 425.722 110.704 422.008 126.084 414.939C125.06 411.298 124.435 407.581 124.217 403.837C124.217 400.006 122.365 396.287 122.365 392.456C122.075 387.269 122.365 382.068 122.607 376.88C123.17 367.093 123.927 357.138 121.818 347.519C120.541 341.154 117.635 335.12 113.317 329.86C111.304 327.497 108.486 324.421 105.427 323.064C102.368 321.708 97.232 322.1 93.561 321.82C90.889 321.516 88.1827 321.516 85.5107 321.82C82.2441 322.436 79.1376 323.574 76.3494 325.176C61.1021 333.117 59.2505 345.925 54.6618 359.711C52.3755 366.604 48.769 373.119 46.4827 379.998C45.2167 383.851 44.6411 387.85 44.776 391.855C44.8726 395.476 46.3861 398.692 47.2394 402.257C48.7421 409.155 50.2341 416.058 51.7154 422.965Z" fill="white"/>
<path id="Vector_97" d="M94.8491 334.418C97.7136 336.507 101.386 337.572 105.121 337.396C106.413 337.384 107.673 337.044 108.744 336.417C109.266 336.087 109.658 335.626 109.866 335.095C110.073 334.564 110.086 333.99 109.903 333.453" stroke="#485070" stroke-width="0.397545" stroke-miterlimit="10" stroke-linecap="round"/>
<path id="Vector_98" d="M91.3391 363.29C93.0245 367.998 95.9338 372.307 99.8423 375.883C103.751 379.459 108.554 382.206 113.88 383.913" stroke="#485070" stroke-width="0.397545" stroke-miterlimit="10" stroke-linecap="round"/>
<path id="Vector_99" d="M101.225 370.603C104.039 373.498 108.017 375.353 112.351 375.79" stroke="#485070" stroke-width="0.397545" stroke-miterlimit="10" stroke-linecap="round"/>
<path id="Vector_100" d="M81.7592 370.029C85.7141 380.826 92.6834 390.606 102.046 398.496" stroke="#485070" stroke-width="0.397545" stroke-miterlimit="10" stroke-linecap="round"/>
<path id="Vector_101" d="M116.843 333.886C121.222 340.43 121.286 344.149 122.269 349.923C123.371 356.403 123.877 362.949 123.782 369.498C123.605 380.46 120.819 390.471 123.637 401.349" stroke="#485070" stroke-width="0.397545" stroke-miterlimit="10"/>
<path id="Vector_102" d="M107.681 319.779C108.336 317.958 109.25 316.215 110.402 314.591C106.996 314.498 103.7 313.525 100.935 311.795C99.5695 310.928 98.2977 309.954 97.1354 308.887C96.7006 308.509 96.0566 307.558 95.3965 306.873C94.6881 313.459 91.8705 319.653 85.398 323.414C87.7583 326.812 91.136 329.591 95.1711 331.453C98.5361 333.145 106.941 336.431 107.134 330.503C107.134 328.559 106.297 326.77 106.49 324.798C106.668 323.091 107.067 321.407 107.681 319.779V319.779Z" fill="#CF9378"/>
<path id="Vector_103" d="M106.474 325.315C106.474 325.148 106.474 324.966 106.474 324.798C106.88 321.184 108.217 317.696 110.386 314.591C106.98 314.498 103.684 313.525 100.919 311.795C99.5535 310.928 98.2816 309.954 97.1193 308.887C96.6846 308.509 96.0406 307.558 95.3804 306.873C95.2677 307.838 95.1228 308.789 94.9135 309.74C95.2658 312.949 96.4995 316.039 98.511 318.749C100.522 321.459 103.253 323.711 106.474 325.315V325.315Z" fill="#9C5240"/>
<path id="Vector_104" d="M56.9642 334.991C50.9747 340.933 48.5113 348.973 46.4827 356.467C43.8099 366.189 41.148 375.897 38.4967 385.591C37.5951 388.961 36.1299 393.561 36.9833 397C37.5161 398.902 38.4778 400.693 39.8126 402.269C41.1474 403.846 42.8289 405.177 44.7599 406.186C48.7367 408.27 54.7906 409.206 59.2505 407.445C63.7104 405.683 68.4279 403.963 71.5353 400.706C73.9504 398.175 74.7554 394.777 75.4156 391.547C76.3816 387.101 77.3316 382.655 78.2976 378.195C82.2101 360.018 86.1225 341.269 81.6948 323.19C72.0674 324.366 63.2696 328.564 56.9642 334.991V334.991Z" fill="white"/>
<path id="Vector_105" d="M81.8236 353.055C73.1132 355.013 73.886 364.688 73.0971 370.659C71.939 379.48 70.0067 388.211 67.3169 396.777" stroke="#485070" stroke-width="0.397545" stroke-miterlimit="10"/>
<path id="Vector_106" d="M75.2868 358.005C76.2588 355.362 78.0934 353.021 80.5678 351.266" stroke="#485070" stroke-width="0.397545" stroke-miterlimit="10"/>
<path id="Vector_107" d="M70.1345 394.232C74.8037 395.127 79.3924 396.413 83.965 397.63C91.2425 399.531 98.6166 400.636 106.007 402.341C108.097 402.904 110.261 403.233 112.447 403.32C116.182 403.32 119.805 402.048 123.54 401.922C126.042 401.93 128.502 402.476 130.699 403.514C132.897 404.551 134.763 406.046 136.131 407.864C140.704 413.932 133.12 412.296 128.355 412.241L117.197 412.101C102.577 411.919 88.7469 412.562 74.0792 413.625C66.0289 414.212 52.2145 415.834 45.098 411.723C41.6525 409.738 35.9689 400.02 39.1408 397.112C39.7783 396.61 40.5296 396.229 41.3465 395.994C48.5319 393.524 56.2993 392.603 63.9841 393.309C66.0512 393.525 68.1041 393.833 70.1345 394.232V394.232Z" fill="#CF9378"/>
<path id="Vector_108" d="M192.693 425.915H96.0728C94.9968 425.915 94.1246 426.672 94.1246 427.606V428.194C94.1246 429.128 94.9968 429.886 96.0728 429.886H192.693C193.769 429.886 194.641 429.128 194.641 428.194V427.606C194.641 426.672 193.769 425.915 192.693 425.915Z" fill="#485070"/>
<path id="Vector_109" d="M204.801 429.872H118.904L126.374 387.017C126.49 386.303 126.895 385.648 127.519 385.171C128.142 384.694 128.941 384.426 129.771 384.417H208.858C209.339 384.427 209.811 384.527 210.243 384.709C210.675 384.892 211.057 385.154 211.363 385.476C211.668 385.798 211.89 386.174 212.014 386.577C212.137 386.981 212.159 387.403 212.078 387.814L204.801 429.872Z" fill="#757E96"/>
<path id="Vector_110" d="M168.944 411.22C172.092 411.22 174.644 409.004 174.644 406.27C174.644 403.537 172.092 401.321 168.944 401.321C165.797 401.321 163.245 403.537 163.245 406.27C163.245 409.004 165.797 411.22 168.944 411.22Z" fill="white"/>
<path id="Vector_111" d="M124.7 292.486C123.718 289.158 119.612 292.067 115.86 290.948C112.64 289.969 110.129 289.102 106.651 289.634C103.491 290.049 100.622 291.469 98.6006 293.619C98.0819 294.188 97.5982 294.781 97.1515 295.394C95.9666 297.496 95.002 299.686 94.2695 301.938V302.092C94.4384 306.302 96.0532 310.373 98.9065 313.78C100.178 315.403 101.927 316.701 103.971 317.54C106.015 318.378 108.28 318.726 110.531 318.548C113.099 318.285 115.474 317.234 117.229 315.584C119.135 313.716 120.64 311.566 121.673 309.236C123.396 305.755 125.778 296.163 124.7 292.486Z" fill="#CF9378"/>
<path id="Vector_112" d="M106.586 295.73C106.586 295.571 106.619 295.404 106.683 295.227L107.697 291.032C111.739 293.661 116.118 297.394 121.351 298.904C123.306 299.441 125.405 299.442 127.361 298.906C129.317 298.371 131.036 297.325 132.283 295.912C132.714 295.392 133.091 294.839 133.41 294.262C133.611 293.76 133.848 293.27 134.119 292.794C133.362 293.133 132.492 293.232 131.66 293.074C130.829 292.915 130.086 292.51 129.562 291.927C128.553 290.739 127.786 289.41 127.292 287.998C125.791 284.762 123.255 281.968 119.982 279.944C116.703 277.94 112.701 277.031 108.712 277.386C106.206 277.646 103.823 278.475 101.805 279.791C100.798 280.432 99.9124 281.205 99.1802 282.084C98.8421 282.489 97.4091 284.712 97.9887 285.146C97.5201 284.86 96.9654 284.7 96.3931 284.685C95.8208 284.67 95.2561 284.801 94.7686 285.062C93.7595 285.628 92.9382 286.414 92.3857 287.341C89.8971 291.157 88.9773 295.594 89.7774 299.924C90.1838 301.759 90.8321 303.546 91.7095 305.252C92.3696 306.65 93.4483 308.3 95.4609 308.342C98.2624 308.342 97.9404 304.329 98.6811 302.231C98.987 301.407 98.9226 300.386 100.05 300.134C101.177 299.883 103.044 301.77 103.93 300.232C104.156 299.637 104.156 298.995 103.93 298.4C103.704 297.803 103.75 297.152 104.059 296.583C104.059 296.583 105.54 296.583 105.765 296.583C105.996 296.547 106.204 296.442 106.354 296.286C106.504 296.13 106.586 295.933 106.586 295.73V295.73Z" fill="#485070"/>
<path id="Vector_113" d="M99.6954 278.952C98.6159 280.227 97.942 281.727 97.7413 283.3C97.5407 284.873 97.8203 286.464 98.5522 287.914" stroke="#485070" stroke-width="0.75" stroke-miterlimit="10" stroke-linecap="round"/>
<path id="Vector_114" d="M91.9993 284.349C92.9032 283.887 93.9631 283.712 94.9992 283.852C96.0352 283.992 96.9834 284.439 97.6828 285.118" stroke="#485070" stroke-width="0.75" stroke-miterlimit="10" stroke-linecap="round"/>
<path id="Vector_115" d="M114.186 304.93C114.88 304.93 115.442 304.442 115.442 303.839C115.442 303.237 114.88 302.749 114.186 302.749C113.492 302.749 112.93 303.237 112.93 303.839C112.93 304.442 113.492 304.93 114.186 304.93Z" fill="#485070"/>
<path id="Vector_116" d="M113.204 300.889C114.032 300.667 114.922 300.691 115.732 300.959" stroke="#485070" stroke-width="0.75" stroke-miterlimit="10" stroke-linecap="round"/>
<path id="Vector_117" d="M123.363 304.944C123.363 305.16 123.29 305.37 123.152 305.55C123.014 305.729 122.818 305.869 122.588 305.951C122.359 306.034 122.106 306.056 121.863 306.014C121.619 305.971 121.395 305.868 121.22 305.715C121.044 305.563 120.924 305.368 120.876 305.157C120.827 304.945 120.852 304.726 120.947 304.527C121.042 304.327 121.203 304.157 121.41 304.037C121.616 303.917 121.859 303.853 122.108 303.853C122.441 303.853 122.76 303.968 122.996 304.173C123.231 304.377 123.363 304.655 123.363 304.944V304.944Z" fill="#485070"/>
<path id="Vector_118" d="M121.141 302.007C121.955 301.764 122.84 301.764 123.653 302.007" stroke="#485070" stroke-width="0.75" stroke-miterlimit="10" stroke-linecap="round"/>
<path id="Vector_119" d="M118.855 305.517C118.718 306.484 119.012 307.459 119.676 308.244C119.887 308.417 120.018 308.65 120.047 308.901C120.021 309.033 119.951 309.155 119.845 309.253C119.739 309.35 119.602 309.417 119.451 309.446C119.144 309.509 118.824 309.509 118.517 309.446" stroke="#485070" stroke-width="0.75" stroke-miterlimit="10" stroke-linecap="round"/>
<path id="Vector_120" d="M113.204 311.445C113.795 311.885 114.494 312.201 115.248 312.368C116.002 312.535 116.79 312.55 117.551 312.41" stroke="#485070" stroke-width="0.75" stroke-miterlimit="10" stroke-linecap="round"/>
<path id="Vector_121" d="M93.9958 301.854C93.9926 302.645 94.2599 303.42 94.764 304.079C95.268 304.739 95.9861 305.253 96.8272 305.558C97.6683 305.863 98.5947 305.944 99.489 305.792C100.383 305.639 101.205 305.259 101.851 304.7C102.496 304.142 102.937 303.429 103.116 302.653C103.295 301.877 103.204 301.072 102.856 300.341C102.508 299.609 101.918 298.984 101.161 298.544C100.403 298.104 99.512 297.869 98.6005 297.869C97.3821 297.869 96.2133 298.288 95.3501 299.035C94.487 299.782 94 300.796 93.9958 301.854V301.854Z" fill="#CF9378"/>
<path id="Vector_122" d="M97.6667 300.148C97.9998 300.116 98.3371 300.155 98.6487 300.262C98.9604 300.369 99.2369 300.541 99.4539 300.763C99.6597 300.994 99.7981 301.265 99.857 301.552C99.9158 301.839 99.8935 302.135 99.792 302.413C99.589 302.258 99.3377 302.159 99.0697 302.127C98.8017 302.096 98.5291 302.135 98.2862 302.238C98.0434 302.341 97.8411 302.504 97.7051 302.707C97.569 302.91 97.5053 303.144 97.5218 303.378" stroke="#485070" stroke-width="0.75" stroke-linecap="round" stroke-linejoin="round"/>
<path id="Vector_123" d="M609.362 530.443C609.234 529.94 592.795 532.442 590.975 532.68L590.766 532.834C585.083 537.028 577.885 539.308 570.817 541.531C569.695 541.795 568.669 542.305 567.839 543.013C564.619 546.27 571.429 547.683 573.844 547.85C577.774 547.963 581.703 547.629 585.533 546.858C593.455 545.655 601.521 546.047 609.362 544.369C609.683 544.33 609.978 544.197 610.2 543.991C610.331 543.802 610.398 543.584 610.393 543.362C610.822 539.035 610.474 534.677 609.362 530.443V530.443Z" fill="#485070"/>
<path id="Vector_124" d="M573.361 430.039C577.338 464.407 584.632 499.683 589.108 534.008C598.382 534.707 601.747 534.176 610.747 532.848C616.656 495.502 619.151 477.48 613.822 439.589C613.275 435.702 613.822 403.502 613.597 399.363C612.647 374.741 616.431 346.624 599.412 325.833C595.097 320.576 588.061 316.549 580.896 317.038C578.429 317.247 576.047 317.929 573.92 319.034C571.793 320.138 569.974 321.639 568.595 323.428C559.804 333.788 564.715 361.962 566.277 374.266C568.354 390.583 571.477 413.667 573.361 430.039Z" fill="#757E96"/>
<path id="Vector_125" d="M576.163 451.432C577.773 445.461 579.737 439.575 581.669 433.689C588.431 413.093 591.233 391.939 594.63 370.77C595.579 365.774 596.08 360.72 596.128 355.656C596.031 350.511 595.242 345.351 594.775 340.276C594.322 333.254 593.229 326.274 591.507 319.401C588.357 317.686 584.673 316.86 580.961 317.038C578.494 317.247 576.111 317.929 573.984 319.033C571.857 320.138 570.039 321.639 568.66 323.428C559.869 333.788 564.78 361.962 566.341 374.266C568.418 390.583 571.542 413.667 573.426 430.039C574.182 437.058 575.132 444.203 576.163 451.432Z" fill="#545D78"/>
<path id="Vector_126" d="M545.958 535.211H545.475C540.201 535.768 534.867 535.744 529.6 535.141C528.928 535.043 528.242 535.043 527.571 535.141C526.996 535.295 526.453 535.526 525.961 535.826C521.011 538.436 515.555 540.241 509.86 541.153C506.64 541.684 503.098 541.978 500.506 543.768C499.298 544.621 498.348 546.173 499.266 547.263C499.614 547.61 500.049 547.883 500.538 548.06C505.481 550.073 512.952 549.291 518.249 549.025C526.83 548.619 535.331 549.025 543.8 547.627C544.148 547.591 544.48 547.481 544.766 547.305C545.118 546.993 545.343 546.591 545.41 546.159C545.965 544.12 546.389 542.057 546.682 539.979C546.795 539.168 547.326 536.217 546.682 535.518C546.596 535.423 546.486 535.346 546.36 535.293C546.235 535.24 546.097 535.212 545.958 535.211V535.211Z" fill="#485070"/>
<path id="Vector_127" d="M566.953 321.75C547.439 321.484 541.466 339.171 539.147 352.776C534.231 381.504 530.791 410.4 528.827 439.463C527.845 453.892 526.54 466.029 525.993 480.514C525.413 495.349 524.479 521.061 525.22 535.756C525.206 536.054 525.302 536.348 525.494 536.595C525.787 536.82 526.165 536.944 526.556 536.945C533.713 537.599 540.924 537.688 548.099 537.21C548.438 537.209 548.771 537.132 549.065 536.986C549.371 536.791 546.618 535.84 546.731 535.588C552.221 520.865 555.989 494.538 557.711 479.158C561.302 446.999 568.982 415.68 582.812 385.969C596.627 357.809 604.387 322.295 566.953 321.75Z" fill="#757E96"/>
<path id="Vector_128" d="M574.955 403.39C582.787 387.146 589.513 370.516 595.097 353.587" stroke="#485070" stroke-width="0.75" stroke-miterlimit="10"/>
<path id="Vector_129" d="M570.785 359.864H570.978C572.771 360.116 574.558 360.34 576.34 360.536C577.66 360.675 578.98 360.801 580.301 360.899L581.605 361.011L584.825 361.207H586.709H588.174C596.601 361.444 605.033 360.928 613.339 359.669C612.099 346.68 608.831 334.166 600.137 323.554C595.838 318.31 588.786 314.27 581.621 314.759C579.156 314.968 576.776 315.65 574.651 316.755C572.527 317.86 570.711 319.36 569.336 321.149C568.658 321.965 568.08 322.842 567.613 323.763C550.659 323.428 543.172 338.263 539.389 350.776C543.237 352.739 547.311 354.347 551.545 355.572C557.801 357.489 564.239 358.925 570.785 359.864V359.864Z" fill="#545D78"/>
<path id="Vector_130" d="M579.286 229.386C579.406 227.484 579.25 225.577 578.819 223.709C582.05 224.654 585.532 224.737 588.818 223.947C590.447 223.55 592.031 223.026 593.551 222.381C594.099 222.157 595.162 221.458 595.983 220.983C594.002 227.359 594.147 234.028 598.704 239.509C595.131 241.98 590.851 243.561 586.322 244.081C582.474 244.654 573.281 245.172 575.486 239.565C576.211 237.719 577.773 236.307 578.385 234.406C578.89 232.765 579.192 231.082 579.286 229.386V229.386Z" fill="#F7B699"/>
<path id="Vector_131" d="M588.19 224.073C585.089 224.716 581.842 224.59 578.819 223.709C579.249 225.577 579.406 227.484 579.286 229.386C579.196 231.096 578.894 232.793 578.385 234.447L578.191 234.951C578.562 234.951 578.948 234.853 579.318 234.783C583.597 232.197 586.727 228.418 588.19 224.073Z" fill="#C46E58"/>
<path id="Vector_132" d="M574.311 198.654C576.565 195.858 579.254 199.8 583.199 199.884C586.644 199.968 589.317 199.884 592.36 201.45C595.146 202.798 597.257 204.995 598.285 207.616C598.536 208.306 598.745 209.006 598.913 209.714C599.153 212.039 599.153 214.379 598.913 216.704V216.844C597.063 220.737 593.918 224.062 589.88 226.394C588.026 227.535 585.854 228.225 583.589 228.392C581.325 228.559 579.05 228.197 577 227.345C574.704 226.31 572.906 224.6 571.928 222.521C570.892 220.196 570.347 217.729 570.318 215.236C570.189 211.489 571.816 201.772 574.311 198.654Z" fill="#F7B699"/>
<path id="Vector_133" d="M578.771 205.211C575.68 205.589 573.152 206.022 570.318 204.582C568.153 203.473 566.54 201.704 565.794 199.619C565.601 199.001 565.472 198.369 565.407 197.731C565.407 197.438 565.407 196.333 565.407 196.137C565.977 196.685 566.749 197.042 567.591 197.146C568.432 197.251 569.288 197.097 570.012 196.71C571.438 195.903 572.695 194.891 573.731 193.718C576.431 191.135 579.93 189.281 583.81 188.377C587.708 187.5 591.839 187.867 595.451 189.412C597.691 190.42 599.589 191.919 600.958 193.76C601.659 194.669 602.202 195.663 602.568 196.71C602.713 197.2 603.147 199.717 602.439 199.94C603.004 199.805 603.602 199.821 604.157 199.985C604.711 200.15 605.195 200.456 605.546 200.863C606.222 201.689 606.643 202.652 606.77 203.659C607.347 207.057 606.851 210.526 605.337 213.698C604.171 216.085 602.865 218.418 601.425 220.689C600.211 222.631 598.362 224.217 596.111 225.247C593.133 226.254 589.909 226.59 586.741 226.226C585.383 226.292 584.035 225.992 582.882 225.366C581.729 224.74 580.827 223.819 580.301 222.731C579.809 221.56 579.537 220.327 579.496 219.081C579.496 218.564 579.173 214.971 579.657 214.747C579.08 215.051 578.44 215.251 577.773 215.334C577.435 215.371 577.093 215.322 576.787 215.193C576.481 215.064 576.225 214.86 576.05 214.607C575.852 214.08 575.881 213.509 576.13 212.999L578.771 205.211Z" fill="#485070"/>
<path id="Vector_134" d="M603.196 193.509C603.691 195.033 603.717 196.644 603.271 198.18C602.824 199.716 601.921 201.124 600.652 202.261" stroke="#485070" stroke-width="0.75" stroke-miterlimit="10" stroke-linecap="round"/>
<path id="Vector_135" d="M608.219 200.933C607.552 200.233 606.629 199.752 605.604 199.571C604.578 199.391 603.512 199.521 602.584 199.94" stroke="#485070" stroke-width="0.75" stroke-miterlimit="10" stroke-linecap="round"/>
<path id="Vector_136" d="M586.081 216.76C585.762 217.501 585.198 218.144 584.459 218.606C583.72 219.068 582.84 219.33 581.93 219.358C581.02 219.386 580.121 219.179 579.346 218.764C578.571 218.348 577.956 217.742 577.578 217.023C577.2 216.303 577.076 215.502 577.221 214.722C577.367 213.941 577.776 213.216 578.397 212.637C579.017 212.058 579.822 211.652 580.708 211.47C581.594 211.288 582.523 211.339 583.376 211.615C584.518 211.989 585.443 212.74 585.95 213.704C586.456 214.668 586.504 215.766 586.081 216.76V216.76Z" fill="#F7B699"/>
<path id="Vector_137" d="M583.295 214.034C583.001 213.889 582.668 213.813 582.329 213.813C581.991 213.813 581.658 213.889 581.363 214.034C581.082 214.18 580.848 214.384 580.679 214.628C580.511 214.872 580.414 215.148 580.397 215.432C580.648 215.347 580.922 215.329 581.184 215.38C581.447 215.431 581.686 215.549 581.871 215.719C582.056 215.888 582.178 216.102 582.222 216.332C582.267 216.563 582.231 216.799 582.12 217.012" stroke="#485070" stroke-width="0.75" stroke-linecap="round" stroke-linejoin="round"/>
<path id="Vector_138" d="M522.177 262.076C522.314 261.445 522.637 260.857 523.114 260.367C523.591 259.877 524.205 259.502 524.898 259.279C526.315 258.86 528.714 258.86 529.197 257.615C529.422 257 529.664 256.762 529.084 256.343C528.488 255.942 527.761 255.717 527.007 255.7C525.845 255.656 524.691 255.895 523.676 256.389C522.66 256.883 521.824 257.612 521.259 258.496C520.921 259.042 520.438 259.755 519.762 259.587C519.606 259.527 519.466 259.441 519.349 259.333C519.233 259.224 519.143 259.097 519.086 258.958C518.281 257.336 519.392 255.504 520.47 253.994C521.23 252.739 522.337 251.668 523.691 250.876C525.347 250.235 527.18 250.022 528.972 250.261C532.594 250.485 536.41 250.722 539.485 252.596C540.29 253.085 541.095 253.659 541.82 254.162C543.957 255.335 546.278 256.235 548.711 256.832C547.97 259.083 547.214 261.335 546.473 263.6C546.439 263.718 546.366 263.824 546.264 263.907C546.123 263.949 545.97 263.949 545.829 263.907C541.417 262.97 536.33 262.187 531.902 261.586C528.65 261.331 525.373 261.496 522.177 262.076Z" fill="#F7B699"/>
<path id="Vector_139" d="M546.425 251.827C542.359 256.29 540.232 261.854 540.419 267.542L548.92 270.493C549.902 266.592 550.869 262.691 551.851 258.79C552.14 257.615 553.348 255.127 552.575 254.162C551.802 253.197 547.809 252.386 546.425 251.827Z" fill="white"/>
<path id="Vector_140" d="M575.664 261.069C573.316 259.814 570.874 258.698 568.354 257.727C563.974 256.021 559.386 254.623 554.99 253.309C553.315 252.746 551.6 252.279 549.854 251.911C545.024 256.343 543.414 263.851 543.977 270.087C549.017 273.918 556.391 276.197 561.946 279.203C564.993 281.004 568.227 282.554 571.606 283.831C574.999 285.115 578.783 285.395 582.378 284.628C583.314 284.446 584.195 284.094 584.964 283.595C585.732 283.096 586.371 282.462 586.837 281.734C587.279 280.766 587.466 279.725 587.385 278.686C587.216 275.145 586.061 271.693 584.02 268.625C581.979 265.557 579.111 262.964 575.664 261.069V261.069Z" fill="#545D78"/>
<path id="Vector_141" d="M492.649 285.663C491.692 284.204 491.113 282.581 490.952 280.908C490.791 279.234 491.051 277.551 491.715 275.974C491.914 275.378 492.263 274.829 492.736 274.364C493.21 273.9 493.795 273.533 494.452 273.289C495.294 273.135 496.169 273.205 496.965 273.489C497.76 273.773 498.439 274.259 498.912 274.883C499.825 276.142 500.556 277.494 501.085 278.91C501.793 280.407 502.724 281.818 503.855 283.104C505.195 284.284 506.199 285.721 506.785 287.299C506.912 287.956 506.857 288.629 506.624 289.264C506.392 289.898 505.989 290.476 505.449 290.948C501.343 294.43 494.613 288.739 492.649 285.663Z" fill="#F7B699"/>
<path id="Vector_142" d="M538.197 283.538L513.773 293.828L481.442 268.353L505.883 258.063L538.197 283.538Z" fill="#F4AE2D"/>
<path id="Vector_143" d="M534.204 282.475L513.225 291.312L485.29 269.304L506.286 260.468L534.204 282.475Z" fill="white"/>
<path id="Vector_144" d="M509.474 265.124L492.037 272.464L490.33 271.122L507.767 263.781L509.474 265.124Z" fill="#C8DDF7"/>
<path id="Vector_145" d="M518.377 272.142L500.94 279.483L499.234 278.141L516.671 270.8L518.377 272.142Z" fill="#C8DDF7"/>
<path id="Vector_146" d="M521.324 274.477L503.887 281.818L502.196 280.476L519.633 273.135L521.324 274.477Z" fill="#C8DDF7"/>
<path id="Vector_147" d="M524.286 276.798L506.849 284.139L505.143 282.797L522.58 275.456L524.286 276.798Z" fill="#C8DDF7"/>
<path id="Vector_148" d="M527.233 279.119L509.796 286.46L508.089 285.132L525.526 277.791L527.233 279.119Z" fill="#C8DDF7"/>
<path id="Vector_149" d="M530.179 281.454L512.742 288.795L511.035 287.453L528.488 280.112L530.179 281.454Z" fill="#C8DDF7"/>
<path id="Vector_150" d="M505.239 262.537L490.571 268.717L484.341 263.795L499.008 257.629L505.239 262.537Z" fill="#485070"/>
<path id="Vector_151" d="M495.176 283.328C494.933 283.579 494.712 283.845 494.516 284.125C492.665 286.698 496.239 289.088 498.525 290.487C503.677 293.633 509.989 295.157 515.994 296.667C519.376 297.52 529.165 295.422 526.46 290.808C524.608 287.662 519.15 285.845 515.56 285.006C511.824 284.405 508.636 283.048 507.236 279.763C506.624 278.364 506.366 276.743 505.819 275.26C505.718 274.886 505.5 274.543 505.191 274.268C505.033 274.134 504.828 274.051 504.609 274.03C504.39 274.01 504.17 274.054 503.983 274.156C503.8 274.301 503.671 274.491 503.613 274.701C502.566 277.232 504.434 279.119 500.844 280.602C499.652 281.091 498.348 281.371 497.189 281.916C496.43 282.283 495.749 282.761 495.176 283.328Z" fill="#F7B699"/>
<path id="Vector_152" d="M513.177 280.587C509.686 285.401 508.261 291.129 509.152 296.764L517.975 298.904L519.424 287.005C519.569 285.817 520.454 283.216 519.585 282.335C518.715 281.454 514.61 280.965 513.177 280.587Z" fill="white"/>
<path id="Vector_153" d="M573.619 234.392C575.516 233.204 577.801 232.576 580.14 232.602L598.043 231.204C599.171 234.671 600.303 238.139 601.441 241.606C601.441 241.466 582.12 242.123 580.236 242.082C578.352 242.04 572.009 242.571 571.204 241.005C570.399 239.439 572.186 235.608 573.619 234.392Z" fill="white"/>
<path id="Vector_154" d="M612.856 320.813C612.856 315.29 613.226 309.782 613.629 304.273C614.16 297.1 614.788 289.927 614.885 282.727C615.147 273.785 614.463 264.841 612.84 256.007C612.405 253.812 611.874 251.645 611.23 249.52C611.101 249.072 610.972 248.611 610.827 248.122C608.911 244.165 605.305 238.908 600.491 236.573C599.692 236.531 598.891 236.531 598.092 236.573C592.553 236.89 587.047 237.421 581.572 238.167C577.805 238.67 575.132 239.089 572.363 241.592C565.295 247.982 558.661 262.313 556.81 271.108C555.055 279.497 555.747 280 554.733 288.473C553.541 298.568 551.851 308.607 549.661 318.59C547.809 326.979 545.056 336.123 537.022 341.087C550.353 345.939 563.846 350.874 578.127 352.776C592.408 354.677 607.784 353.419 619.989 346.61C614.209 338.976 612.824 329.971 612.856 320.813Z" fill="#757E96"/>
<path id="Vector_155" d="M579.882 263.949C579.389 262.996 578.624 262.169 577.66 261.544C576.555 260.972 575.272 260.712 573.989 260.803C568.402 261.027 563.974 264.998 560.996 269.094C558.017 273.191 555.699 277.847 551.448 280.993C544.026 286.502 526.138 282.014 517.83 280.406C511.502 285.775 510.826 291.997 514.111 299.239C525.252 303.434 548.695 313.571 560.803 308.551C564.945 306.645 568.404 303.787 570.801 300.288C572.29 298.283 573.645 296.206 574.859 294.066C577.831 289.455 580.089 284.524 581.573 279.399C583.068 274.233 582.472 268.778 579.882 263.949V263.949Z" fill="#757E96"/>
<path id="Vector_156" d="M584.841 246.486C582.958 244.873 580.504 243.857 577.875 243.604C575.246 243.35 572.595 243.873 570.35 245.088C567.726 246.486 566.39 249.464 565.037 251.799C563.356 254.695 561.924 257.695 560.754 260.775C559.563 263.921 558.645 267.137 557.534 270.311C555.699 275.498 553.316 280.56 551.947 285.859C550.579 291.158 550.337 296.848 552.559 301.896C555.779 309.11 566.776 305.279 571.655 301.267C575.841 297.813 577.853 292.878 579.705 288.11C581.556 283.342 583.472 278.56 585.34 273.778C587.318 269.1 588.574 264.216 589.075 259.251C589.397 254.428 588.431 249.8 584.841 246.486Z" fill="#757E96"/>
<path id="Vector_157" d="M555.216 276.449C557.833 265.851 562.394 255.687 568.724 246.346" stroke="#485070" stroke-width="0.75" stroke-miterlimit="10"/>
<path id="Vector_158" d="M588.609 267.403L581.412 284.181C579.689 288.208 578.063 293.353 574.794 296.667C571.526 299.98 568.499 303.658 564.506 306.314C560.709 309.123 555.818 310.564 550.836 310.341" stroke="#485070" stroke-width="0.75" stroke-miterlimit="10"/>
<path id="Vector_159" d="M591.233 268.885C589.056 269.964 587.267 271.547 586.065 273.457" stroke="#485070" stroke-width="0.75" stroke-miterlimit="10"/>
<path id="Vector_160" d="M516.011 266.438L513.129 267.836L514.594 265.291L531.934 249.59C532.024 249.509 532.132 249.446 532.251 249.402C532.37 249.358 532.497 249.336 532.626 249.336C532.756 249.336 532.883 249.358 533.002 249.402C533.121 249.446 533.229 249.509 533.319 249.59V249.59C533.499 249.754 533.599 249.971 533.599 250.198C533.599 250.425 533.499 250.642 533.319 250.806L516.011 266.438Z" fill="#485070"/>
</g>
</g>
<defs>
<clipPath id="clip0_2_2">
<rect width="696" height="562" fill="white"/>
</clipPath>
</defs>
</svg>
